Coordinates
version=1
nRows=14
nColumns=40
inDegrees=yes

Units are S.I. units (second, meters, Newtons, ...)
Angles are in degrees.

endheader
time	pelvis_tilt	pelvis_list	pelvis_rotation	pelvis_tx	pelvis_ty	pelvis_tz	hip_flexion_r	hip_adduction_r	hip_rotation_r	knee_angle_r	knee_angle_r_beta	ankle_angle_r	subtalar_angle_r	mtp_angle_r	hip_flexion_l	hip_adduction_l	hip_rotation_l	knee_angle_l	knee_angle_l_beta	ankle_angle_l	subtalar_angle_l	mtp_angle_l	lumbar_extension	lumbar_bending	lumbar_rotation	arm_flex_r	arm_add_r	arm_rot_r	elbow_flex_r	pro_sup_r	wrist_flex_r	wrist_dev_r	arm_flex_l	arm_add_l	arm_rot_l	elbow_flex_l	pro_sup_l	wrist_flex_l	wrist_dev_l
     19.27500000	     -5.91656209	     -4.21891648	     -1.73988835	      0.99818907	      0.92342789	      0.43166517	     29.08268721	     -0.92672472	    -13.89245370	      8.98475898	      8.98475898	      0.29458810	      5.92743722	      8.75394128	      2.03523252	     -3.64588903	    -10.42541642	     13.67447079	     13.67447079	     17.94012766	     -6.33439173	     -3.45453014	    -10.63886258	      5.46850030	      1.93617453	    -16.12142520	    -11.76698913	    -12.45364580	     22.12442271	     47.09410148	      0.00000000	      0.00000000	     19.64851458	    -17.81919815	    -11.24549756	     83.48523898	     47.77105212	      0.00000000	      0.00000000
     19.28735714	     -6.02476626	     -4.02917614	     -1.70275189	      1.00002495	      0.92176468	      0.43331700	     28.83095704	     -0.83017455	    -14.19946383	      8.41264458	      8.41264458	      0.24041364	      6.42305626	      9.17711332	      1.47401517	     -3.56027109	    -10.47386209	     13.64085168	     13.64085168	     18.29145106	     -6.10649894	     -3.65050306	    -10.28287983	      5.15316859	      1.86006560	    -16.92798874	    -11.59941189	    -12.46086868	     22.11331145	     47.08397364	      0.00000000	      0.00000000	     19.93667564	    -18.06283958	    -11.35796269	     83.84001034	     47.79038931	      0.00000000	      0.00000000
     19.29971429	     -5.93216563	     -4.10237193	     -1.70508014	      1.00223992	      0.92065482	      0.43514572	     28.08497829	     -0.47870549	    -14.90836134	      7.84839655	      7.84839655	      0.00751054	      7.51541389	      9.61177918	      0.54328016	     -3.79565669	    -10.90456016	     13.41982979	     13.41982979	     18.71197811	     -5.32462913	     -3.88393671	    -10.19003710	      5.14956255	      2.07713820	    -17.62482076	    -11.45973530	    -12.43414347	     22.58061226	     47.04651901	      0.00000000	      0.00000000	     20.10204431	    -17.82690521	    -11.23959678	     84.57043283	     47.80721306	      0.00000000	      0.00000000
     19.31207143	     -6.08840582	     -4.03643743	     -1.69313960	      1.00419763	      0.91922135	      0.43705979	     27.82627498	     -0.30183209	    -14.98400381	      8.01073537	      8.01073537	     -0.25556852	      7.50392465	      9.67526943	      0.07947788	     -3.86397306	    -10.87546326	     13.48846608	     13.48846608	     18.93543169	     -5.34318415	     -3.96725006	     -9.75922901	      4.99594378	      2.01887957	    -17.71797810	    -11.41276894	    -12.43390455	     22.57425981	     47.04544100	      0.00000000	      0.00000000	     20.14730272	    -17.83964202	    -11.24656478	     84.61194171	     47.80904918	      0.00000000	      0.00000000
     19.32442857	     -6.08327571	     -4.23271797	     -1.52210994	      1.00655423	      0.91807284	      0.43917021	     27.43463653	      0.02418182	    -15.34359837	      8.65282784	      8.65282784	     -0.46042966	      7.29740190	      9.33758533	     -0.66313633	     -4.26068503	    -10.88714527	     13.40159321	     13.40159321	     19.34441936	     -4.95444312	     -4.07653545	     -9.54671726	      5.10942000	      1.92992880	    -18.03575028	    -11.10360030	    -12.38552081	     22.58741668	     47.03469964	      0.00000000	      0.00000000	     20.10787174	    -17.76417914	    -11.24113550	     84.74937770	     47.81361340	      0.00000000	      0.00000000
     19.33678571	     -5.99323256	     -4.25332773	     -1.50066405	      1.00907921	      0.91683218	      0.44159261	     26.94672637	      0.26594040	    -15.18817649	      9.29217192	      9.29217192	     -2.45207138	      6.46821214	      3.31304943	     -1.25068066	     -4.74242746	    -12.36574650	     14.00750525	     14.00750525	     20.68801250	     -2.32480853	     -3.24461359	     -9.44183603	      5.00459997	      2.04119640	    -18.38876179	    -11.12117622	    -11.56976305	     23.70821563	     46.88612542	      0.00000000	      0.00000000	     19.96738846	    -17.63252729	    -11.22560852	     85.12690626	     47.87103174	      0.00000000	      0.00000000
     19.34914286	     -6.03124489	     -4.30207079	     -1.37815024	      1.01139789	      0.91586211	      0.44390425	     26.76734217	      0.40085131	    -15.07315298	     10.47380075	     10.47380075	     -2.46029081	      5.85497082	      2.61068455	     -1.77663189	     -5.01805342	    -12.35853714	     14.22056719	     14.22056719	     20.99319869	     -2.15807181	     -3.24440418	     -9.17181961	      4.90609419	      2.00476780	    -18.03838503	    -10.90974543	    -11.38605682	     23.74323186	     46.86960062	      0.00000000	      0.00000000	     19.78602434	    -17.40508466	    -11.17839162	     84.98334905	     47.87082995	      0.00000000	      0.00000000
     19.36150000	     -5.97814964	     -4.42648108	     -1.21565863	      1.01375272	      0.91517038	      0.44606639	     26.56815671	      0.56172133	    -14.92707500	     11.81714707	     11.81714707	     -2.37174340	      4.99372694	      1.75417201	     -2.25046741	     -5.41781969	    -12.39100015	     14.72651461	     14.72651461	     21.26552467	     -1.96360640	     -3.26643930	     -9.04721871	      5.03755325	      1.94016141	    -17.54200912	    -10.89207678	    -11.21356200	     23.75956712	     46.85769446	      0.00000000	      0.00000000	     19.49802783	    -17.20059483	    -11.15601656	     84.70128568	     47.86782531	      0.00000000	      0.00000000
     19.37385714	     -5.94755325	     -4.53023332	     -1.04760357	      1.01607828	      0.91470113	      0.44837397	     26.40846646	      0.71586804	    -14.65249993	     13.13454698	     13.13454698	     -2.11248832	      4.03383271	      0.85250716	     -2.52247729	     -5.85697637	    -12.42621639	     15.54734530	     15.54734530	     21.48622086	     -1.84769196	     -3.33715509	     -8.89591152	      5.09746781	      1.86203777	    -16.79480925	    -10.80859489	    -11.00602751	     23.80806883	     46.84396649	      0.00000000	      0.00000000	     19.09998389	    -16.93462513	    -11.12994612	     84.27594370	     47.86068997	      0.00000000	      0.00000000
     19.38621429	     -6.04995481	     -4.58328194	     -0.87797642	      1.01816116	      0.91428997	      0.45076011	     26.45590656	      0.85086083	    -14.07092534	     14.43472049	     14.43472049	     -1.88575650	      2.64446733	     -0.35030162	     -2.33913243	     -6.34902664	    -12.53144891	     16.91926991	     16.91926991	     21.68016373	     -1.70033527	     -3.47965381	     -8.60789957	      5.07008419	      1.67860992	    -15.73033477	    -10.67790501	    -10.56936882	     23.68886911	     46.82074159	      0.00000000	      0.00000000	     18.55464330	    -16.60462767	    -11.20726703	     83.52572193	     47.85733036	      0.00000000	      0.00000000
     19.39857143	     -5.95263406	     -4.69707877	     -0.69943550	      1.02038881	      0.91458106	      0.45310511	     26.19090978	      1.03811635	    -13.72052247	     15.52259757	     15.52259757	     -1.39720425	      1.65549060	     -1.13869798	     -2.24228354	     -6.89413152	    -12.39475128	     18.50476017	     18.50476017	     21.55705682	     -2.04917261	     -3.72840389	     -8.59566781	      5.14881975	      1.59792543	    -14.58380084	    -10.63510386	    -10.19747015	     23.69604489	     46.79912807	      0.00000000	      0.00000000	     18.00616712	    -16.27628198	    -11.22978873	     82.75954171	     47.84782402	      0.00000000	      0.00000000
     19.41092857	     -5.82839157	     -4.78340772	     -0.54245166	      1.02259662	      0.91522686	      0.45544672	     25.82087059	      1.26685052	    -13.12630035	     16.36324686	     16.36324686	     -0.98244855	      0.38792090	     -2.23648936	     -1.96629982	     -7.42862186	    -12.11588256	     20.40976901	     20.40976901	     20.86724875	     -2.86241631	     -4.85191491	     -8.56422359	      5.19309163	      1.38692340	    -12.94093005	    -10.76087808	     -8.44175997	     22.86468272	     46.70175059	      0.00000000	      0.00000000	     17.35824845	    -15.74976525	    -11.64633150	     81.48124177	     47.87929583	      0.00000000	      0.00000000
     19.42328571	     -5.70535888	     -4.79584577	     -0.37827098	      1.02469024	      0.91616007	      0.45768503	     25.47113136	      1.34724784	    -12.84265384	     17.23556757	     17.23556757	     -0.11052215	     -0.23224278	     -2.55154006	     -1.35017352	     -7.90588315	    -11.62014698	     22.88656076	     22.88656076	     20.07467166	     -4.07398403	     -5.50920419	     -8.61507882	      5.19044595	      1.26434138	    -11.60289554	    -10.76926726	     -8.12085685	     23.33445675	     46.66671118	      0.00000000	      0.00000000	     16.56350470	    -15.42237417	    -11.51651632	     80.44016527	     47.85319362	      0.00000000	      0.00000000
     19.43564286	     -5.35141685	     -4.84468396	     -0.21682234	      1.02688502	      0.91766566	      0.45994114	     24.74402628	      1.49328903	    -12.63421240	     17.86034817	     17.86034817	      0.79711368	     -0.65447739	     -2.83098321	     -0.76246642	     -8.45588876	    -11.09555894	     25.74240710	     25.74240710	     18.97824012	     -5.41366527	     -6.10348438	     -8.97771540	      5.20519912	      1.30828772	    -10.16409262	    -10.80586988	     -7.91055514	     23.80847204	     46.64211400	      0.00000000	      0.00000000	     15.88895574	    -15.02214241	    -11.37538264	     79.39397625	     47.82353228	      0.00000000	      0.00000000
